<svg width="1528" height="109" viewBox="0 0 1528 109" fill="none" xmlns="http://www.w3.org/2000/svg">
<path d="M110.072 106H68.6V100.752L80.632 91.024V59.536H33.016V95.248L46.712 99.6L43.512 106H2.04V100.752L14.072 91.024V16.016L0.504 11.792L3.704 5.392H45.176V10.64L33.016 20.368V52.24H80.632V16.016L67.064 11.792L70.264 5.392H111.736V10.64L99.576 20.368V95.248L113.272 99.6L110.072 106ZM204.254 106H125.79V100.752L137.822 91.28V16.144L124.254 11.792L127.454 5.392H202.974L210.782 3.088V33.808L205.662 35.728L190.174 12.688H156.766V50.96H174.814L184.286 35.344H189.534V73.616L183.134 76.816L174.942 58.256H156.766V98.576H189.534L206.942 73.104L212.062 75.024V108.304L204.254 106ZM334.351 106H291.855V100.752L304.655 91.92L295.567 69.904H253.967L244.879 91.28L266.127 99.6L262.927 106H223.119V100.752L235.919 90.896L270.735 9.488L287.503 2.95999L324.495 92.304L337.551 99.6L334.351 106ZM275.215 20.368L257.167 62.608H292.623L275.215 20.368ZM422.498 20.496L387.682 101.904L370.786 108.432L333.794 18.96L320.866 11.792L324.194 5.392H366.562V10.64L353.762 19.6L383.33 91.28L413.538 20.112L392.162 11.792L395.362 5.392H435.298V10.64L422.498 20.496ZM520.754 106H442.29V100.752L454.322 91.28V16.144L440.754 11.792L443.954 5.392H519.474L527.282 3.088V33.808L522.162 35.728L506.674 12.688H473.266V50.96H491.314L500.786 35.344H506.034V73.616L499.634 76.816L491.442 58.256H473.266V98.576H506.034L523.442 73.104L528.562 75.024V108.304L520.754 106ZM636.771 20.368V106H628.067L567.651 32.4V92.816L583.011 99.6L579.811 106H546.915V100.752L558.947 91.024V19.216L545.379 11.792L548.579 5.392H569.187L628.067 76.944V18.32L612.835 11.792L616.035 5.392H648.931V10.64L636.771 20.368ZM664.776 52.112L658.632 47.248C662.813 42.2987 665.843 37.9893 667.72 34.32C669.597 30.6507 670.792 26.6827 671.304 22.416L660.936 16.144V10.896L684.744 0.0159912L690.632 20.88L664.776 52.112ZM762.711 83.984C762.711 81.3387 761.644 78.864 759.511 76.56C757.463 74.256 754.903 72.1653 751.831 70.288C748.759 68.3253 744.492 65.8933 739.031 62.992C732.631 59.5787 727.468 56.6347 723.543 54.16C719.618 51.6 716.247 48.656 713.431 45.328C710.7 41.9147 709.335 38.16 709.335 34.064C709.335 29.7973 711.17 25.232 714.839 20.368C718.594 15.4187 723.159 11.28 728.535 7.952C733.911 4.53866 738.86 2.83199 743.383 2.83199C748.844 2.83199 755.202 3.472 762.455 4.752C769.794 6.032 775.127 7.39733 778.455 8.84799V34.96H770.775C766.85 28.048 762.498 22.672 757.719 18.832C753.026 14.992 748.076 13.072 742.871 13.072C738.519 13.072 735.106 14.4373 732.631 17.168C730.156 19.8133 728.919 23.2693 728.919 27.536C728.919 30.352 729.986 32.9973 732.119 35.472C734.252 37.8613 736.898 40.0373 740.055 42C743.298 43.9627 747.65 46.352 753.111 49.168C759.34 52.4107 764.418 55.2693 768.343 57.744C772.268 60.2187 775.554 63.12 778.199 66.448C780.93 69.776 782.295 73.4453 782.295 77.456C782.295 81.7227 780.29 86.3307 776.279 91.28C772.354 96.144 767.532 100.283 761.815 103.696C756.098 107.024 750.892 108.688 746.199 108.688C740.482 108.688 733.655 108.048 725.719 106.768C717.868 105.488 712.194 104.123 708.695 102.672V76.56H716.503C720.599 83.472 725.292 88.848 730.583 92.688C735.874 96.528 741.292 98.448 746.839 98.448C751.618 98.448 755.458 97.04 758.359 94.224C761.26 91.3227 762.711 87.9093 762.711 83.984ZM962.364 84.88L965.82 91.28L942.268 105.744C938.428 106.853 934.716 107.579 931.132 107.92C927.633 108.347 923.836 108.56 919.74 108.56C909.927 108.56 901.223 106.384 893.628 102.032C886.119 97.68 880.273 91.7067 876.092 84.112C871.911 76.432 869.82 67.728 869.82 58C869.82 48.016 872.935 38.8 879.164 30.352C885.479 21.8187 893.287 15.12 902.588 10.256C911.889 5.30666 920.721 2.83199 929.084 2.83199C934.119 2.83199 940.007 3.472 946.748 4.752C953.575 6.032 958.524 7.39733 961.596 8.84799V35.856H953.788C945.681 22.032 934.972 15.12 921.66 15.12C915.772 15.12 910.439 16.6987 905.66 19.856C900.881 23.0133 897.127 27.408 894.396 33.04C891.665 38.5867 890.3 44.8587 890.3 51.856C890.3 59.9627 891.623 67.344 894.268 74C896.913 80.656 900.967 85.9893 906.428 90C911.975 94.0107 918.801 96.016 926.908 96.016C930.407 96.016 933.265 95.9307 935.484 95.76C937.788 95.5893 940.433 95.0773 943.42 94.224V65.552L923.452 60.432L926.652 54.032H974.524V59.28L962.364 69.136V84.88ZM1090.6 106H1048.11V100.752L1060.91 91.92L1051.82 69.904H1010.22L1001.13 91.28L1022.38 99.6L1019.18 106H979.369V100.752L992.169 90.896L1026.99 9.488L1043.75 2.95999L1080.75 92.304L1093.8 99.6L1090.6 106ZM1031.47 20.368L1013.42 62.608H1048.87L1031.47 20.368ZM1195.78 106H1170.31L1143.55 61.072L1137.79 56.976L1140.1 52.24H1146.88C1152.17 52.24 1156.35 50.7893 1159.43 47.888C1162.5 44.9867 1164.03 40.976 1164.03 35.856C1164.03 29.3707 1162.24 24.0373 1158.66 19.856C1155.16 15.6747 1150.04 13.584 1143.3 13.584C1138.86 13.584 1134.81 14.9067 1131.14 17.552V95.248L1144.83 99.6L1141.63 106H1100.16V100.752L1112.19 91.024V15.888L1098.63 11.792L1101.83 5.392H1119.23C1126.83 5.392 1134.3 5.136 1141.63 4.62399C1147.1 4.28266 1151.11 4.11199 1153.67 4.11199C1159.72 4.11199 1165.1 5.26399 1169.79 7.56799C1174.49 9.87199 1178.11 13.0293 1180.67 17.04C1183.23 20.9653 1184.51 25.3173 1184.51 30.096C1184.51 36.3253 1181.83 42.0427 1176.45 47.248C1171.07 52.4533 1164.59 56.2933 1156.99 58.768L1166.21 61.712L1184.77 92.816L1198.98 99.6L1195.78 106ZM1259.55 4.24C1268.68 4.24 1276.74 6.37333 1283.74 10.64C1290.82 14.8213 1296.29 20.6667 1300.13 28.176C1303.97 35.6853 1305.89 44.176 1305.89 53.648C1305.89 63.376 1302.94 72.3787 1297.05 80.656C1291.25 88.848 1284 95.376 1275.29 100.24C1266.59 105.019 1258.31 107.408 1250.46 107.408C1246.45 107.408 1242.53 107.195 1238.69 106.768C1232.12 106.341 1227.12 106.128 1223.71 106.128H1205.79V100.88L1217.82 91.408V16.144L1204.25 11.792L1207.45 5.392H1223.58C1231.52 5.392 1239.33 5.136 1247.01 4.62399C1252.64 4.28266 1256.82 4.11199 1259.55 4.11199V4.24ZM1254.05 97.04C1259.93 97.04 1265.27 95.4613 1270.05 92.304C1274.82 89.0613 1278.58 84.624 1281.31 78.992C1284.04 73.2747 1285.41 66.8747 1285.41 59.792C1285.41 51.344 1284.08 43.664 1281.44 36.752C1278.88 29.7547 1274.91 24.208 1269.53 20.112C1264.16 15.9307 1257.5 13.84 1249.57 13.84C1244.87 13.84 1240.61 15.1627 1236.77 17.808V94.096C1241.63 95.9733 1247.39 96.912 1254.05 96.912V97.04ZM1399.75 106H1321.29V100.752L1333.32 91.28V16.144L1319.75 11.792L1322.95 5.392H1398.47L1406.28 3.088V33.808L1401.16 35.728L1385.67 12.688H1352.27V50.96H1370.31L1379.79 35.344H1385.03V73.616L1378.63 76.816L1370.44 58.256H1352.27V98.576H1385.03L1402.44 73.104L1407.56 75.024V108.304L1399.75 106ZM1515.77 20.368V106H1507.07L1446.65 32.4V92.816L1462.01 99.6L1458.81 106H1425.92V100.752L1437.95 91.024V19.216L1424.38 11.792L1427.58 5.392H1448.19L1507.07 76.944V18.32L1491.84 11.792L1495.04 5.392H1527.93V10.64L1515.77 20.368Z" fill="#FFAFC4"/>
</svg>
